<?xml version="1.0" encoding="utf-8"?>
<!-- Generator: Adobe Illustrator 14.0.0, SVG Export Plug-In  -->
<!DOCTYPE svg PUBLIC "-//W3C//DTD SVG 1.1//EN" "http://www.w3.org/Graphics/SVG/1.1/DTD/svg11.dtd" [
	<!ENTITY ns_flows "http://ns.adobe.com/Flows/1.0/">
]>
<svg version="1.1"
	 xmlns="http://www.w3.org/2000/svg" xmlns:xlink="http://www.w3.org/1999/xlink" xmlns:a="http://ns.adobe.com/AdobeSVGViewerExtensions/3.0/"
	 x="0px" y="0px" width="44px" height="44px" viewBox="0 44.141 44 44" enable-background="new 0 44.141 44 44"
	 xml:space="preserve">
<defs>
</defs>
<rect fill="#28A8E0" width="44.183" height="44.187"/>
<linearGradient id="SVGID_1_" gradientUnits="userSpaceOnUse" x1="0" y1="66.2334" x2="44.1826" y2="66.2334">
	<stop  offset="0" style="stop-color:#D51773"/>
	<stop  offset="1" style="stop-color:#F15B2A"/>
</linearGradient>
<rect y="44.14" fill="url(#SVGID_1_)" width="44.183" height="44.187"/>
<path fill="#FFFFFF" d="M22.09,59.924c-3.474,0-6.301,2.83-6.301,6.305s2.827,6.305,6.301,6.305c3.477,0,6.302-2.83,6.302-6.305
	S25.567,59.924,22.09,59.924z M22.09,70.236c-2.214,0-4-1.806-4-4.007c0-2.198,1.785-3.996,4-3.996c2.204,0,3.999,1.798,3.999,3.996
	C26.089,68.43,24.294,70.236,22.09,70.236z M28.728,57.711c-1.03,0-1.872,0.843-1.872,1.873c0,1.036,0.842,1.88,1.872,1.88
	c1.043,0,1.88-0.844,1.88-1.88C30.607,58.554,29.771,57.711,28.728,57.711z M27.48,53.327H16.701c-4.493,0-8.157,3.652-8.157,8.148
	v9.512c0,4.491,3.664,8.148,8.157,8.148H27.48c4.493,0,8.148-3.657,8.148-8.148v-9.512C35.629,56.979,31.974,53.327,27.48,53.327z
	 M33.329,70.987c0,3.223-2.62,5.841-5.849,5.841H16.701c-3.222,0-5.846-2.618-5.846-5.841v-9.512c0-3.22,2.624-5.846,5.846-5.846
	H27.48c3.229,0,5.849,2.626,5.849,5.846V70.987z"/>
</svg>
