<?xml version="1.0" encoding="utf-8"?>
<!-- Generator: Adobe Illustrator 14.0.0, SVG Export Plug-In  -->
<!DOCTYPE svg PUBLIC "-//W3C//DTD SVG 1.1//EN" "http://www.w3.org/Graphics/SVG/1.1/DTD/svg11.dtd" [
	<!ENTITY ns_flows "http://ns.adobe.com/Flows/1.0/">
]>
<svg version="1.1"
	 xmlns="http://www.w3.org/2000/svg" xmlns:xlink="http://www.w3.org/1999/xlink" xmlns:a="http://ns.adobe.com/AdobeSVGViewerExtensions/3.0/"
	 x="0px" y="0px" width="44px" height="44px" viewBox="0 44.141 44 44" enable-background="new 0 44.141 44 44"
	 xml:space="preserve">
<defs>
</defs>
<rect y="44.142" fill="#BA2327" width="44.183" height="44.187"/>
<path fill="#FFFFFF" d="M36.263,59.368h-0.05c-0.253-1.617-1.582-2.871-3.217-3.045l0,0c0,0-3.163-0.459-11.03-0.459
	c-6.919,0-10.183,0.373-10.876,0.463h-0.005c-0.088,0.01-0.126,0.018-0.126,0.018c-1.565,0.25-2.792,1.469-3.039,3.023
	c-0.014,0.021-0.514,0.973-0.514,6.859c0,4.66,0.288,6.426,0.568,7.254c0.357,1.352,1.447,2.402,2.833,2.689l0,0l0,0
	c0.197,0.035,0.405,0.049,0.608,0.057c3.918,0.428,6.256,0.371,11.906,0.371c5.733,0,9.416-0.357,9.649-0.387h0.015h0.011l0,0
	c1.34-0.143,2.474-1.006,2.977-2.207l0,0c0.325-0.588,0.801-1.816,0.801-7.777C36.773,60.276,36.263,59.368,36.263,59.368z
	 M19.049,70.071V61.86l7.911,4.102L19.049,70.071z"/>
<linearGradient id="SVGID_1_" gradientUnits="userSpaceOnUse" x1="0" y1="22.0933" x2="44.1826" y2="22.0933">
	<stop  offset="0" style="stop-color:#D51773"/>
	<stop  offset="1" style="stop-color:#F15B2A"/>
</linearGradient>
<rect fill="url(#SVGID_1_)" width="44.183" height="44.187"/>
</svg>
