<?xml version="1.0" encoding="utf-8"?>
<!-- Generator: Adobe Illustrator 14.0.0, SVG Export Plug-In  -->
<!DOCTYPE svg PUBLIC "-//W3C//DTD SVG 1.1//EN" "http://www.w3.org/Graphics/SVG/1.1/DTD/svg11.dtd" [
	<!ENTITY ns_flows "http://ns.adobe.com/Flows/1.0/">
]>
<svg version="1.1"
	 xmlns="http://www.w3.org/2000/svg" xmlns:xlink="http://www.w3.org/1999/xlink" xmlns:a="http://ns.adobe.com/AdobeSVGViewerExtensions/3.0/"
	 x="0px" y="0px" width="44px" height="44px" viewBox="0 44.187 44 44" enable-background="new 0 44.187 44 44"
	 xml:space="preserve">
<defs>
</defs>
<rect y="44.187" fill="#28A8E0" width="44.183" height="44.187"/>
<path fill="#FFFFFF" d="M28.982,72.592h-8.445c-1.478,0-2.404-0.394-2.505-1.037v-4.854h6.721c1.565,0,2.838-1.265,2.838-2.838
	c0-1.565-1.272-2.831-2.838-2.831h-6.721V58.75c0-1.557-1.275-2.822-2.839-2.822c-1.561,0-2.826,1.265-2.826,2.822v12.891
	c0,2.659,2.167,6.62,8.17,6.62h8.445c1.563,0,2.832-1.273,2.832-2.846C31.814,73.856,30.545,72.592,28.982,72.592z"/>
<rect fill="#3E5B99" width="44.183" height="44.187"/>
</svg>
